<?xml version="1.0" encoding="UTF-8" standalone="no"?>
<!-- Created with Inkscape (http://www.inkscape.org/) -->

<svg
   width="297mm"
   height="420mm"
   viewBox="0 0 297 420"
   version="1.1"
   id="svg1"
   xml:space="preserve"
   inkscape:export-filename="bitmap.png"
   inkscape:export-xdpi="101.8419"
   inkscape:export-ydpi="101.8419"
   inkscape:version="1.4.2 (f4327f4, 2025-05-13)"
   sodipodi:docname="tekening-1.svg"
   xmlns:inkscape="http://www.inkscape.org/namespaces/inkscape"
   xmlns:sodipodi="http://sodipodi.sourceforge.net/DTD/sodipodi-0.dtd"
   xmlns="http://www.w3.org/2000/svg"
   xmlns:svg="http://www.w3.org/2000/svg"><sodipodi:namedview
     id="namedview1"
     pagecolor="#ffffff"
     bordercolor="#000000"
     borderopacity="0.25"
     inkscape:showpageshadow="2"
     inkscape:pageopacity="0.0"
     inkscape:pagecheckerboard="0"
     inkscape:deskcolor="#d1d1d1"
     inkscape:document-units="mm"
     inkscape:zoom="0.97548401"
     inkscape:cx="397.75127"
     inkscape:cy="889.30212"
     inkscape:window-width="2560"
     inkscape:window-height="1334"
     inkscape:window-x="-11"
     inkscape:window-y="-11"
     inkscape:window-maximized="1"
     inkscape:current-layer="layer1"><inkscape:page
       x="0"
       y="0"
       width="297"
       height="420"
       id="page2"
       margin="0"
       bleed="0" /></sodipodi:namedview><defs
     id="defs1"><rect
       x="50"
       y="668"
       width="525"
       height="384"
       id="rect4" /><rect
       x="97"
       y="667"
       width="360"
       height="229"
       id="rect3" /><rect
       x="207.07669"
       y="519.742"
       width="307.03772"
       height="323.20111"
       id="rect65" /><style
       id="style1">.cls-1{fill:#de1a66;}.cls-2,.cls-3{fill:#15355c;}.cls-3{font-size:120px;letter-spacing:-0.05em;}.cls-3,.cls-4{font-family:AvenirNext-MediumItalic, Avenir Next;font-weight:500;font-style:italic;}.cls-4{font-size:79.85px;fill:#e51a69;}</style><style
       id="style1-1">.cls-1{fill:#de1a66;}.cls-2,.cls-3{fill:#15355c;}.cls-3{font-size:120px;letter-spacing:-0.05em;}.cls-3,.cls-4{font-family:AvenirNext-MediumItalic, Avenir Next;font-weight:500;font-style:italic;}.cls-4{font-size:79.85px;fill:#e51a69;}</style></defs><g
     inkscape:label="Laag 1"
     inkscape:groupmode="layer"
     id="layer1"><g
       id="g1"
       transform="matrix(1.4000442,0,0,1.4000442,-3.1615828,-3.3019281)"><g
         id="layer1-8"><ellipse
           style="fill:#dc006a;fill-opacity:1;stroke:none;stroke-width:0.835924;stroke-dasharray:none;stroke-opacity:1;paint-order:markers stroke fill"
           id="path51-2-76"
           cx="134.53926"
           cy="118.20494"
           rx="99.42585"
           ry="97.368774"
           transform="rotate(12.655985)" /><g
           id="g63"
           transform="matrix(3.123699,0.70143488,-0.68692244,3.0590709,0.49194574,-372.94602)"><ellipse
             style="fill:#002f60;fill-opacity:1;stroke:none;stroke-width:0.222941;stroke-dasharray:none;stroke-opacity:1;paint-order:markers stroke fill"
             id="path51-2-7"
             cx="64.300583"
             cy="151.438"
             rx="26.445208"
             ry="26.038357" /></g><text
           xml:space="preserve"
           style="font-size:3.91347px;line-height:1.25;font-family:Elephant;-inkscape-font-specification:Elephant;text-align:start;writing-mode:lr-tb;direction:ltr;text-anchor:start;fill:#002f60;fill-opacity:1;stroke-width:0.293972;paint-order:fill markers stroke"
           x="47.723579"
           y="33.14967"
           id="text5"
           transform="rotate(12.562148)"><tspan
             id="tspan5"
             style="stroke-width:0.293974"
             x="47.723579"
             y="33.14967">                </tspan></text><ellipse
           style="fill:#dc006a;fill-opacity:1;stroke-width:0.607373;paint-order:fill markers stroke"
           id="path9"
           cx="205.04294"
           cy="87.94017"
           transform="matrix(0.9020228,0.4316884,-0.37515164,0.92696345,0,0)"
           rx="25.741997"
           ry="29.322273" /><text
           xml:space="preserve"
           transform="matrix(0.4664095,0.14501078,-0.14468293,0.48552109,113.59472,-132.31973)"
           id="text65"
           style="font-style:normal;font-variant:normal;font-weight:normal;font-stretch:normal;font-size:46.6667px;font-family:Elephant;-inkscape-font-specification:Elephant;text-align:start;writing-mode:lr-tb;direction:ltr;white-space:pre;shape-inside:url(#rect65);display:inline;opacity:1;fill:#dc006a;fill-opacity:1;stroke:none;stroke-width:1.00157;stroke-dasharray:none;stroke-opacity:1;paint-order:fill markers stroke"><tspan
             x="207.07617"
             y="569.92554"
             id="tspan10"><tspan
   style="fill:#ffffff"
   id="tspan1">       </tspan><tspan
   style="font-size:55.367px;font-family:'VAG Rounded';-inkscape-font-specification:'VAG Rounded';fill:#ffffff"
   id="tspan9">ps</tspan>
</tspan></text><text
           xml:space="preserve"
           style="font-style:normal;font-variant:normal;font-weight:normal;font-stretch:normal;font-size:61.7744px;line-height:1.25;font-family:Sylfaen;-inkscape-font-specification:Sylfaen;text-align:start;writing-mode:lr-tb;direction:ltr;text-anchor:start;fill:#002f60;fill-opacity:1;stroke-width:4.64038;paint-order:fill markers stroke"
           x="187.97575"
           y="117.6413"
           id="text7"
           transform="matrix(0.88403725,0.36125441,-0.35818438,0.98480501,0,0)"><tspan
             id="tspan7"
             style="font-style:normal;font-variant:normal;font-weight:normal;font-stretch:normal;font-family:'VAG Rounded';-inkscape-font-specification:'VAG Rounded';fill:#ffffff;fill-opacity:1;stroke-width:4.64038"
             x="187.97575"
             y="117.6413">O</tspan></text></g><g
         id="g80"
         transform="matrix(0.3740453,0.00298705,-0.00312945,0.39187915,50.476975,69.236611)"><path
           class="cls-1"
           d="m 521.74,379.91 c 0,-6.11 -0.07,-11.43 0,-16.75 a 31.49,31.49 0 0 1 0.76,-6.86 c 1.06,-4.35 5.32,-7.37 9.29,-6.89 a 9.22,9.22 0 0 1 8.21,8.72 c 0.18,3.47 0.06,6.95 0.06,10.42 q 0,31.05 0,62.09 c 0,6.51 -1.69,9.88 -6,11.32 -4.85,1.63 -8.39,-0.5 -11.22,-4.32 -0.24,-0.31 -0.73,-0.44 -1.09,-0.65 -17,16 -42.33,2 -45.3,-21.14 -1.68,-13.14 0.91,-25.14 11.35,-34.3 8.94,-7.84 20.3,-8.9 30.58,-3.23 0.83,0.41 1.62,0.74 3.36,1.59 z m -0.08,29.81 c 0,-1.3 0.09,-2.61 0,-3.9 -0.57,-7.34 -6,-13.07 -12.82,-13.63 -6.11,-0.5 -11.85,4.06 -13.84,10.92 a 21,21 0 0 0 1.71,16.35 12.5,12.5 0 0 0 14.24,6.4 c 6.95,-1.58 10.73,-7.25 10.71,-16.14 z"
           transform="translate(-346.53,-341.77)"
           id="path1" /><path
           id="path2"
           class="cls-1"
           transform="translate(-346.53,-341.77)"
           d="m 580.54398,374.87551 a 31.17,31.17 0 0 0 -8.55456,1.13433 c -17.25,4.87 -27.69005,22.76095 -23.90005,40.76095 2.84,13.53 10.42105,22.92999 24.16105,25.92999 a 43.65,43.65 0 0 0 14.49156,0.89489 c 1.04091,-0.17572 2.08528,-0.32861 3.13447,-0.44744 a 43.65,43.65 0 0 0 13.44251,-4.78887 19.19,19.19 0 0 0 5.00199,-4.10923 c 2.66,-3.05 3.28927,-6.48098 0.87927,-10.00098 -2.41,-3.52 -5.96962,-3.67029 -9.67962,-2.22029 -1.62,0.63 -3.11113,1.60146 -4.75113,2.11146 -3.37,1.07 -6.85885,2.50996 -10.36885,2.74996 -6.2,0.43 -12.27097,-0.50124 -15.94097,-6.50124 -2.43,-3.98 -1.5686,-5.44928 3.0914,-5.51928 5.35,-0.06 10.69993,0 16.04993,0 l -0.0608,-0.14028 c 5.93,0 11.86075,0.08 17.79075,0 3.56,-0.05 5.61035,-1.82994 6.00035,-5.49994 A 31.17,31.17 0 0 0 580.544,374.87551 Z m 0.26099,15.37998 c 0.42899,3e-4 0.85783,0.0222 1.28471,0.0653 5.82692,0.58969 10.89478,6.37228 10.51075,12.67839 -7.69704,2.4e-4 -15.44422,0.0709 -23.22096,-0.10883 -0.7,-0.01 -1.99832,-1.6815 -1.92832,-2.4815 0.45,-5.475 6.91902,-10.15779 13.35382,-10.15336 z" /><path
           class="cls-1"
           d="m 467.16,395.87 c 0,12.15 0,24.29 0,36.44 0,6.33 -3.34,10.08 -8.75,10.14 -5.57,0.07 -9,-3.48 -9,-9.84 q -0.11,-36.64 0,-73.31 c 0,-5.8 3.72,-9.8 8.72,-9.92 5,-0.12 9,4.15 9,10.05 0.08,12.15 0.03,24.29 0.03,36.44 z"
           transform="translate(-346.53,-341.77)"
           id="path3" /><path
           class="cls-1"
           d="m 420,409.43 c 0,-7.52 0,-15 0,-22.55 0.05,-6.74 3.55,-10.69 9.28,-10.65 5.73,0.04 9.06,4 9.07,10.83 q 0,22.54 0,45.09 c 0,6 -3.37,9.93 -8.37,10.29 -5.71,0.41 -9.85,-3.64 -9.95,-10 -0.11,-7.69 -0.03,-15.35 -0.03,-23.01 z"
           transform="translate(-346.53,-341.77)"
           id="path4" /><path
           class="cls-1"
           d="m 378.68,444.11 a 75.91,75.91 0 0 0 9.43,-1.34 c 16.81,-4.16 25.18,-23.35 22.9,-37.73 -0.91,-5.73 -3.06,-11.27 -4.7,-17.09 4.79,-2.74 8.77,-6.4 7.3,-12.95 a 10.32,10.32 0 0 0 -8.81,-8.41 c -7.64,-1 -11.39,3.38 -13.4,10.15 -15.47,-4.29 -29.3,-2.19 -38.19,11.76 -10.56,16.58 -8.23,32.94 4.42,47.93 a 14.22,14.22 0 0 1 -1.17,1.47 c -11.82,11.09 -11.82,27.82 0.4,38.42 9.38,8.13 20.4,9.54 32.13,6.19 7.49,-2.15 13.8,-6.17 17.6,-13.13 a 23.07,23.07 0 0 0 2.34,-8.62 c 0.41,-4.14 -2.16,-6.77 -5.76,-8.29 -3.6,-1.52 -6.79,-0.33 -9.36,2.47 -2.57,2.8 -4.81,6.24 -7.8,8.61 a 11.87,11.87 0 0 1 -13.83,0.28 11.63,11.63 0 0 1 -4.13,-12.39 c 1.09,-4.21 4.61,-6.61 10.63,-7.33 z M 364.6,409.7 c 0,-9.67 6.27,-17.5 14,-17.5 7.73,0 14,7.83 14,17.5 0,9.67 -6.27,17.5 -14,17.5 -7.73,0 -14,-7.84 -14,-17.5 z"
           transform="translate(-346.53,-341.77)"
           id="path5" /><path
           id="path6"
           class="cls-2"
           transform="translate(-346.53,-341.77)"
           d="m 631.15928,364.71973 v 0.12093 c 0.081,-0.0418 0.16347,-0.0823 0.24579,-0.12093 z m 20.64141,34.81358 c -0.14318,0.61841 -0.28672,1.23671 -0.43076,1.85507 -0.08,0.34353 -0.13485,0.70327 -0.17231,1.07387 0.20152,-0.28765 0.40193,-0.55105 0.60307,-0.78605 z" /></g><g
         id="g81"
         transform="matrix(0.36643291,0.08228349,-0.08228349,0.36643291,-52.809094,82.94596)"
         style="fill:#ffffff;fill-opacity:1"><path
           id="path2-3"
           class="cls-1"
           transform="translate(-346.53,-341.77)"
           d="m 577.33504,375.01979 a 31.17,31.17 0 0 0 -0.63281,0.0664 c 0.0972,0.11727 0.19459,0.23598 0.29297,0.35547 0.11206,-0.1421 0.22491,-0.28216 0.33984,-0.42187 z m 23.63281,16.40429 c -0.0923,0.0361 -0.65927,0.73327 -0.84961,1.01758 -0.14115,0.21085 -0.27877,0.424 -0.41406,0.63867 0.50104,-0.42775 0.92365,-0.9454 1.24609,-1.57226 0.0179,-0.0348 0.0274,-0.0593 0.0293,-0.0723 6e-5,-9.4e-4 5e-5,-0.005 0,-0.006 v -0.002 -0.002 h -0.002 v -0.002 h -0.002 -0.002 -0.002 -0.002 z m 8.30469,3.06446 c 0.0176,0.18802 0.0338,0.37639 0.0508,0.56445 0.059,0.009 0.11875,0.0166 0.17773,0.0254 a 31.17,31.17 0 0 0 -0.22851,-0.58984 z"
           style="fill:#ffffff;fill-opacity:1" /><path
           id="text8"
           class="cls-3"
           transform="translate(484.31,102.48)"
           d="m 8.1200421,-37.413808 c -0.00311,0.03691 -0.00671,0.07439 -0.00977,0.111328 0.017475,0.06578 0.036646,0.130775 0.056641,0.195312 0.00673,-0.02397 0.012804,-0.04828 0.019531,-0.07227 -0.022305,-0.07776 -0.044518,-0.156102 -0.066406,-0.234375 z"
           style="fill:#ffffff;fill-opacity:1" /><text
           xml:space="preserve"
           transform="matrix(0.78153414,0,0,0.78153414,165.49439,-378.04089)"
           id="text3"
           style="font-style:normal;font-variant:normal;font-weight:normal;font-stretch:normal;font-size:48px;line-height:1.25;font-family:Elephant;-inkscape-font-specification:Elephant;text-align:start;writing-mode:lr-tb;direction:ltr;white-space:pre;shape-inside:url(#rect3);display:inline;fill:#ffffff;fill-opacity:1;stroke-width:1.00157;paint-order:fill markers stroke" /></g><text
         xml:space="preserve"
         transform="matrix(0.28485197,0.07076861,-0.07076861,0.28485197,85.682382,-71.69293)"
         id="text4"
         style="font-style:normal;font-variant:normal;font-weight:normal;font-stretch:normal;font-size:160px;line-height:1.25;font-family:Elephant;-inkscape-font-specification:Elephant;text-align:start;writing-mode:lr-tb;direction:ltr;white-space:pre;shape-inside:url(#rect4);display:inline;fill:#ffffff;fill-opacity:1;stroke-width:1.00157;paint-order:fill markers stroke"><tspan
           x="50"
           y="813.44417"
           id="tspan12"><tspan
             style="font-weight:300;font-family:'VAG Rounded';-inkscape-font-specification:'VAG Rounded Light'"
             id="tspan11">Dev</tspan></tspan></text></g></g></svg>
